# xmcd CD database file
#
# Track frame offsets:
#	150
#	32972
#	60602
#	81600
#	105031
#	122511
#	143378
#	164447
#	181594
#	197820
#	214285
#	226381
#	245161
#	268315
#	296586
#	315578
#
# Disc length: 4744 seconds
#
# Revision: 0
# Processed by: cddbd v1.5.2PL0 Copyright (c) Steve Scherf et al.
# Submitted via: CDex 1.51
#
DISCID=e7128610
DTITLE=Orquesta Aragon - The 70th Anniversary Album CD4
DYEAR=2009
DGENRE=Salsa
TTITLE0=Hay Que Saber Comenzar
TTITLE1=Arrímate Paca
TTITLE2=No Quiero Lió
TTITLE3=La Reina Isabel
TTITLE4=No Me Molesto
TTITLE5=Caserita Villareña
TTITLE6=Mi Son Es Un Vacilón
TTITLE7=La Gioconda
TTITLE8=Patricia
TTITLE9=Para Sentirme Mejor
TTITLE10=Los Carboncitos
TTITLE11=Ahora Si Sabroseado
TTITLE12=Guacharumba
TTITLE13=Mala Fama
TTITLE14=Si Me Pudieras Querer 
TTITLE15=A Gozar La Vida 
EXTD=YEAR: 2009
EXTT0=
EXTT1=
EXTT2=
EXTT3=
EXTT4=
EXTT5=
EXTT6=
EXTT7=
EXTT8=
EXTT9=
EXTT10=
EXTT11=
EXTT12=
EXTT13=
EXTT14=
EXTT15=
PLAYORDER=
